<svg width="28" height="14" viewBox="0 0 28 14" fill="none" xmlns="http://www.w3.org/2000/svg">
<path fill-rule="evenodd" clip-rule="evenodd" d="M27.2788 7.40712C27.4106 7.27322 27.4883 7.10057 27.4984 6.91894C27.5052 6.81406 27.4892 6.70899 27.4515 6.61001C27.4137 6.51103 27.355 6.42018 27.2788 6.34288L21.253 0.250345C21.1781 0.175008 21.088 0.114173 20.988 0.0713131C20.8879 0.0284533 20.7798 0.00440875 20.6698 0.000551513C20.5598 -0.00330573 20.45 0.0130997 20.3468 0.0488324C20.2435 0.084565 20.1489 0.138925 20.0682 0.208807C19.9874 0.278689 19.9223 0.362725 19.8764 0.456117C19.8304 0.549508 19.8047 0.650427 19.8005 0.753109C19.7964 0.855791 19.814 0.958225 19.8523 1.05456C19.8906 1.1509 19.9488 1.23926 20.0237 1.31459L24.7055 6.04996H0.825C0.369365 6.04996 0 6.41932 0 6.87496C0 7.33059 0.369365 7.69996 0.825 7.69996H24.7056L20.0237 12.4354C19.9488 12.5107 19.8906 12.5991 19.8523 12.6954C19.814 12.7918 19.7964 12.8942 19.8005 12.9969C19.8047 13.0996 19.8304 13.2005 19.8764 13.2939C19.9223 13.3873 19.9874 13.4713 20.0682 13.5412C20.1489 13.6111 20.2435 13.6654 20.3468 13.7012C20.45 13.7369 20.5598 13.7533 20.6698 13.7494C20.7798 13.7456 20.8879 13.7215 20.988 13.6787C21.088 13.6358 21.1781 13.575 21.253 13.4997L27.2788 7.40712Z" fill="#4033AD"/>
</svg>
