<svg width="33" height="33" viewBox="0 0 33 33" fill="none" xmlns="http://www.w3.org/2000/svg">
<path d="M23.2689 14.7378V12.0585C23.2689 11.3588 23.3719 10.9099 23.6094 10.6274C23.8305 10.3645 24.2681 10.134 25.2352 10.134H25.2354L27.873 10.1329L28.3728 10.1327V9.63288V5.17832V4.73908L27.9372 4.68249C27.4578 4.62022 25.8729 4.48271 24.0306 4.48271C22.0278 4.48271 20.2896 5.09586 19.0507 6.32078C17.8103 7.5472 17.1259 9.33203 17.1259 11.5662V14.7394H13.3256H12.8256V15.2394V20.2205V20.7205H13.3256H17.1259V32.5H1.82138C1.09238 32.5 0.5 31.9084 0.5 31.1775V1.82138C0.5 1.09095 1.09199 0.5 1.82138 0.5H31.1775C31.9081 0.5 32.4996 1.09115 32.5 1.82056V31.1775C32.5 31.9052 31.9076 32.4984 31.177 32.4984H23.2683V20.7183H27.0566H27.496L27.5525 20.2825L28.1975 15.302L28.2705 14.7378H27.7016H23.2689Z" stroke="white"/>
</svg>
