<svg width="33" height="33" viewBox="0 0 33 33" fill="none" xmlns="http://www.w3.org/2000/svg">
<path fill-rule="evenodd" clip-rule="evenodd" d="M24 1H9C4.58172 1 1 4.58172 1 9V24C1 28.4183 4.58172 32 9 32H24C28.4183 32 32 28.4183 32 24V9C32 4.58172 28.4183 1 24 1ZM9 0C4.02944 0 0 4.02944 0 9V24C0 28.9706 4.02944 33 9 33H24C28.9706 33 33 28.9706 33 24V9C33 4.02944 28.9706 0 24 0H9ZM16.5 23C20.0899 23 23 20.0899 23 16.5C23 12.9101 20.0899 10 16.5 10C12.9101 10 10 12.9101 10 16.5C10 20.0899 12.9101 23 16.5 23ZM16.5 24C20.6421 24 24 20.6421 24 16.5C24 12.3579 20.6421 9 16.5 9C12.3579 9 9 12.3579 9 16.5C9 20.6421 12.3579 24 16.5 24ZM26 8C26 8.55228 25.5523 9 25 9C24.4477 9 24 8.55228 24 8C24 7.44772 24.4477 7 25 7C25.5523 7 26 7.44772 26 8ZM27 8C27 9.10457 26.1046 10 25 10C23.8954 10 23 9.10457 23 8C23 6.89543 23.8954 6 25 6C26.1046 6 27 6.89543 27 8Z" fill="white"/>
</svg>
