<svg width="100" height="54" viewBox="0 0 100 54" fill="none" xmlns="http://www.w3.org/2000/svg">
<path d="M80.4697 14.8598C73.2172 14.8598 66.6262 18.8676 63.2488 25.2005C59.8699 18.8676 53.2805 14.8598 46.0279 14.8598C41.7196 14.8598 37.6349 16.2394 34.2165 18.8502C31.3338 21.0522 29.0953 24.0577 27.8004 27.4293C26.4205 25.6361 24.683 24.1208 22.7044 23.0001C20.1871 21.5731 17.3327 20.8186 14.4516 20.8186C12.0209 20.8186 9.63123 21.3521 7.44947 22.3734L8.36943 17.9615H23.8749L24.8673 13.335H4.95424L1.68082 28.861L5.75448 28.8705L5.98447 28.6463C8.47183 26.2328 11.8161 25 15.3022 25.2384C21.3844 25.6535 26.2819 30.6431 26.608 36.7424C26.9829 43.7698 21.3843 49.6071 14.4516 49.6071C10.0424 49.6071 5.96556 47.2062 3.81374 43.3405L0 45.5046C2.93001 50.7452 8.4671 54 14.4516 54C20.7857 54 26.6284 50.3474 29.4576 44.7659C33.013 50.5005 39.2275 54 46.0279 54C53.2805 54 59.8715 49.9923 63.2488 43.6593C66.6278 49.9923 73.2172 54 80.4697 54C91.2383 54 100 45.2205 100 34.4299C100 23.6393 91.2383 14.8598 80.4697 14.8598ZM47.389 49.3119C38.098 50.1422 30.3477 42.376 31.1763 33.0661C31.8111 25.9297 37.5467 20.184 44.6669 19.5479C53.9579 18.7176 61.7082 26.4838 60.8796 35.7937C60.2448 42.9301 54.5108 48.6758 47.389 49.3119ZM81.8308 49.3119C72.5398 50.1422 64.7895 42.376 65.6181 33.0661C66.2529 25.9297 71.9869 20.184 79.1087 19.5479C88.3997 18.7176 96.15 26.4838 95.3214 35.7937C94.6866 42.9301 88.9526 48.6758 81.8308 49.3119Z" fill="white"/>
<path d="M34.9781 1.18545C34.9781 1.25806 34.945 1.29594 34.9119 1.36855L34.2409 2.33143C34.181 2.41667 34.107 2.46245 34.0345 2.46245C33.9888 2.46245 33.9085 2.44982 33.8218 2.38984C33.2374 1.99679 32.6246 1.74739 31.9 1.74739C30.005 1.74739 28.5951 3.24696 28.5951 5.01013C28.5951 6.81909 30.0506 8.26025 31.826 8.26025C32.4844 8.26025 33.1224 8.05662 33.7415 7.65095L33.9605 7.53256C33.981 7.53256 33.9936 7.52625 34.014 7.52625C34.1542 7.52625 34.9781 8.58068 34.9781 8.8364C34.9781 8.94847 34.9182 9.01319 34.819 9.0858C33.9746 9.66195 32.9838 10.0092 31.8669 10.0092C29.0472 10.0092 26.793 7.77565 26.793 5.01013C26.793 2.24777 29.0598 0 31.8732 0C32.9633 0 33.9542 0.33464 34.8127 0.929732C34.9119 0.989714 34.9781 1.08127 34.9781 1.18545Z" fill="white"/>
<path d="M40.6016 0.425094C40.6016 0.267245 40.715 0.13623 40.9072 0.13623H42.1312C42.284 0.13623 42.4305 0.241989 42.4305 0.425094V8.17549H46.5404C46.6995 8.17549 46.8333 8.28598 46.8333 8.47067V9.57088C46.8333 9.72241 46.7199 9.86605 46.5404 9.86605H40.8946C40.7024 9.86605 40.6016 9.76819 40.6016 9.57719V0.425094Z" fill="white"/>
<path d="M53.4762 5.94666C53.4762 7.43991 54.4529 8.37754 55.7777 8.37754C57.1608 8.37754 58.0855 7.38782 58.0855 5.94666V0.425094C58.0855 0.267245 58.2115 0.13623 58.3911 0.13623H59.582C59.7679 0.13623 59.9144 0.267245 59.9144 0.425094V5.9877C59.9144 8.72638 58.013 10.0223 55.7793 10.0223C53.5455 10.0223 51.6426 8.58747 51.6426 5.9877V0.425094C51.6426 0.287766 51.756 0.13623 51.9151 0.13623H53.1659C53.2982 0.13623 53.4778 0.267245 53.4778 0.425094V5.94666H53.4762Z" fill="white"/>
<path d="M65.4859 0.444036C65.4859 0.254617 65.5994 0.13623 65.7852 0.13623H69.9014C71.4232 0.13623 72.5967 1.24117 72.5967 2.57342C72.5967 3.29479 72.3605 4.16454 71.8816 4.63493C72.6456 5.14005 73.2048 5.70199 73.2048 6.93479C73.2048 8.63167 71.8879 9.86447 70.3252 9.86447H65.7837C65.6041 9.86447 65.4844 9.76661 65.4844 9.57561V0.444036H65.4859ZM69.2493 1.62948H67.3211V4.13139H69.5612C70.3 4.13139 70.8246 3.54735 70.8246 2.84019C70.8261 2.03989 70.1535 1.62948 69.2493 1.62948ZM70.007 5.49994H67.3211V8.36491H70.007C70.771 8.36491 71.4562 7.86137 71.4562 6.88428C71.4578 5.9214 70.7852 5.49994 70.007 5.49994Z" fill="white"/>
</svg>
